PathFileType	4	(X/Y/Z)	AB12\squats_1.trc
DataRate	CameraRate	NumFrames	NumMarkers	Units	OrigDataRate	OrigDataStartFrame	OrigNumFrames
200.000000	200.000000	4	35	mm	200.000000	114	304
Frame#	Time	C7			LSHO			STRN			LASI			RASI			LPSI			RPSI			LGTR			RGTR			LTHC			LTHL			LTHR			LKNE			LMKNE			LSHC			LSHL			LSHR			LANK			LMANK			LMT1			LMT5			LCAL			RTHC			RTHL			RTHR			RKNE			RMKNE			RSHC			RSHL			RSHR			RANK			RMANK			RMT1			RMT5			RCAL			
		X1	Y1	Z1	X2	Y2	Z2	X3	Y3	Z3	X4	Y4	Z4	X5	Y5	Z5	X6	Y6	Z6	X7	Y7	Z7	X8	Y8	Z8	X9	Y9	Z9	X10	Y10	Z10	X11	Y11	Z11	X12	Y12	Z12	X13	Y13	Z13	X14	Y14	Z14	X15	Y15	Z15	X16	Y16	Z16	X17	Y17	Z17	X18	Y18	Z18	X19	Y19	Z19	X20	Y20	Z20	X21	Y21	Z21	X22	Y22	Z22	X23	Y23	Z23	X24	Y24	Z24	X25	Y25	Z25	X26	Y26	Z26	X27	Y27	Z27	X28	Y28	Z28	X29	Y29	Z29	X30	Y30	Z30	X31	Y31	Z31	X32	Y32	Z32	X33	Y33	Z33	X34	Y34	Z34	X35	Y35	Z35	

115	21.56	-3569.279783146764	945.2097922662796	2465.512274955423	-3620.675738444366	897.6755511113276	2586.593637705905	-3634.804399380101	800.8992502736837	2475.005120036898	-3398.015977887886	589.7337244115593	2639.917180071209	-3384.766456769626	596.9800294562646	2361.275449123112	-3204.711142171187	679.1536947425656	2540.922381100367	-3194.930144025956	671.2531306316456	2453.236241545767	-3282.851756732889	593.4527615838479	2725.342478757096	-3278.634182617157	556.9498857191121	2285.567593601675	-3453.772835432197	474.6307239007526	2727.469720720837	-3573.5429713942	515.4183587900632	2653.752990472869	-3521.622892574427	356.1887222763694	2646.411418946286	-3635.879339965761	381.3490641089092	2737.978287707024	-3653.323919551044	368.7264956946954	2599.313230845274	-3537.207209698964	257.1345327500006	2734.864120479227	-3533.699133474352	163.6180427414696	2682.360706009252	-3440.288010102767	193.2414067873684	2658.259402796603	-3413.628925798029	87.09359749529061	2706.867394384726	-3427.550775282318	78.58937786311922	2618.80115193425	-3547.84987792468	45.61477809710394	2663.946709143763	-3507.008232412419	41.58136296908413	2747.531636600752	-3333.831019763713	65.8895081060726	2671.634183541035	-3532.692747112887	354.9364249361602	2372.363796450002	-3436.066829266048	439.4207588120444	2287.509464203857	-3548.558470086657	524.2755114190476	2351.824572682798	-3612.552236103395	380.1495092399317	2272.567064810411	-3644.952670442146	353.3415254111502	2403.361387493515	-3418.36577814958	181.0245826411659	2349.564676427849	-3511.394276398712	263.6417882502139	2280.010881740046	-3522.305043911412	167.1102577685785	2325.637390840271	-3398.378636317238	91.67013336042096	2303.452409451127	-3420.257934983747	83.48510709744761	2387.745729711847	-3531.526665511757	51.20842918432638	2340.825327593603	-3494.09129328898	48.75421057505321	2268.145321731062	-3324.229929334007	72.2714476361504	2349.941011871663	
116	21.565	-3569.411860453326	941.730734651974	2465.624985070511	-3620.835628236902	894.2568745025154	2586.719260305096	-3634.907774119808	797.5083558160575	2475.152411349317	-3398.002599803336	587.2069328647266	2639.941163438579	-3384.753531233639	594.2585651016803	2361.367416797087	-3204.41904859778	676.1614093551922	2540.910363028102	-3194.703861281378	668.2529438359473	2453.27634581278	-3282.617601822374	590.765692720295	2725.442449976449	-3278.468005684762	554.3126291713288	2285.696818300164	-3453.692316853952	472.8718262644666	2727.377774267552	-3573.139475470516	514.3731037041798	2653.456466811242	-3522.174766197111	354.8280879480405	2646.288688163589	-3636.298673121767	380.7891518647319	2737.863254615655	-3653.794089373403	368.1771600314983	2599.019889570898	-3537.522556051123	256.9200668293421	2734.663830676346	-3533.877621475216	163.414392780509	2682.200581211322	-3440.487905651358	193.1370970673845	2658.097105991566	-3413.672842276376	87.1167400595865	2706.768466799288	-3427.589393953265	78.50602548572765	2618.711267171615	-3547.855528882415	45.5522870371006	2663.909646833777	-3507.016721537983	41.59473505777708	2747.487070028548	-3333.887742019972	65.90948588254383	2671.566265341318	-3533.176820538883	353.7275926680188	2372.330915711002	-3436.11639451034	437.6779276416113	2287.563896271455	-3548.144734505616	523.1120361776392	2352.080372793223	-3612.882322105881	379.5851627512414	2272.556864420123	-3645.434574900922	352.792394477641	2403.398720730053	-3418.515377351316	180.9523053688611	2349.652917247383	-3511.660210205894	263.4346565200854	2280.086834867966	-3522.443709972171	166.8998967111492	2325.677157603683	-3398.414381115914	91.66865671335646	2303.489771342282	-3420.285433276434	83.42373082601857	2387.779841727332	-3531.533257456816	51.18427437287752	2340.829717156837	-3494.087703729196	48.76291231077852	2268.15745956583	-3324.246360721607	72.29812695513277	2349.957722571268	
117	21.57	-3569.536262292406	938.3158945424558	2465.743998052096	-3620.987843446762	890.9023932434421	2586.851180068724	-3635.004003028311	794.1824118120446	2475.306540458463	-3397.981685312651	584.7314897734234	2639.954867068297	-3384.745329027808	591.5705512460012	2361.4469103976	-3204.127779618244	673.2133190162631	2540.88249501604	-3194.482735647972	665.2941614368691	2453.2991800724	-3282.376864850507	588.1236735663171	2725.526929560125	-3278.314221470183	551.7019069054711	2285.819004768269	-3453.60654554368	471.1473351698938	2727.283043823053	-3572.731432546037	513.3418228458912	2653.162249911166	-3522.71321194264	353.4947321957871	2646.165014296072	-3636.702169331658	380.2445431915594	2737.749553391234	-3654.24965794829	367.643403567288	2598.727709941496	-3537.828288791401	256.7114299538496	2734.464713331698	-3534.049746555922	163.21652255716	2682.041794993054	-3440.675894782531	193.0318949100024	2657.9360005651	-3413.713640369246	87.1396020572456	2706.669236412148	-3427.626707523763	78.42356672274992	2618.622247039004	-3547.859425142117	45.49007037525918	2663.872099660285	-3507.027805054512	41.61055347940663	2747.440142532875	-3333.943205554828	65.92860015081827	2671.498881100778	-3533.667318621399	352.5277805587195	2372.30936462376	-3436.169990017469	435.9585897205024	2287.613498251597	-3547.737062907303	521.961076893387	2352.329230207084	-3613.205091085375	379.0297848447705	2272.546849742128	-3645.90891197321	352.2544563068058	2403.436363411268	-3418.663528661511	180.8839420107353	2349.741082475605	-3511.920171654542	263.22815815533	2280.163085967401	-3522.577317547558	166.6912298264918	2325.718696058605	-3398.44676889497	91.66598923149805	2303.527822835947	-3420.310384470465	83.36008773071104	2387.81682842717	-3531.538188570767	51.15914313505481	2340.835730464529	-3494.084476666276	48.77236702051171	2268.170855950385	-3324.262271697679	72.32076528532988	2349.978038321219	
118	21.575	-3569.652215184379	934.966730586083	2465.868879891902	-3621.131611086818	887.6135675096432	2586.988963005997	-3635.092945732977	790.9229769409652	2475.467233798942	-3397.952769179302	582.3071724238101	2639.957681521279	-3384.740654884759	588.9172309910319	2361.513828293183	-3203.837679435856	670.3100003738771	2540.839358198369	-3194.265998685568	662.3771766762894	2453.305066915396	-3282.130840139223	585.5285479099916	2725.59584109564	-3278.172958915699	549.118448684596	2285.933648549023	-3453.517233511364	469.4591920830395	2727.186871512155	-3572.320929200639	512.3244998156171	2652.871109158283	-3523.238592276347	352.1888093510443	2646.042883384121	-3637.090682757032	379.7147378888497	2737.639407742636	-3654.691394925516	367.1243228926849	2598.439782867456	-3538.124886068179	256.5082365432035	2734.268809805555	-3534.21575112759	163.0239997787169	2681.885498294856	-3440.852249071243	192.9260316409106	2657.776994661591	-3413.751455085519	87.16217885376952	2706.570273531004	-3427.662803058997	78.34228742573593	2618.534470264518	-3547.861771105897	45.42847380444542	2663.834204285514	-3507.04128893947	41.62855581732902	2747.391082875714	-3333.997120733794	65.94699148533229	2671.432251596498	-3534.164085497403	351.3379523172192	2372.297646904719	-3436.229153024533	434.2633761459592	2287.657910832689	-3547.336933152172	520.8228157612887	2352.571259137781	-3613.521708804003	378.4827734357488	2272.536506390256	-3646.3767857201	351.7269283985813	2403.474496773541	-3418.810861469026	180.8193429008978	2349.829270183734	-3512.174801156584	263.0217974353799	2280.239370396393	-3522.706400320675	166.4838399331018	2325.762215845859	-3398.47631208945	91.66204802816239	2303.56720258424	-3420.333636273871	83.29372373906061	2387.857111005604	-3531.541727884195	51.13321046229574	2340.843473816741	-3494.081747049308	48.78261650880394	2268.185670081491	-3324.277878765665	72.33901022266319	2350.002590944967	
